<svg width="215" height="66" viewBox="0 0 215 66" fill="none" xmlns="http://www.w3.org/2000/svg">
<g clip-path="url(#clip0)">
<ellipse opacity="0.8" cx="60.4431" cy="26.6666" rx="13.5188" ry="19.377" transform="rotate(5.91321 60.4431 26.6666)" fill="#1974ca"/>
<ellipse cx="41.0546" cy="32.7057" rx="13.5188" ry="19.377" transform="rotate(-18.8509 41.0546 32.7057)" fill="#1974ca"/>
<path d="M27 39H75.0709C75.4546 39.1667 76.337 39.8 76.7973 41C77.3728 42.5 79 64.5 51.5 60C29.8624 60 24.8134 59.3333 25.0052 59C29 58 29.5 54 30 51C30.5 48 27 39 27 39Z" fill="#1974ca"/>
<path d="M63.1171 18.4323C62.4859 18.4323 61.9745 18.9439 61.9745 19.5749V19.7574C61.9745 20.3886 62.4859 20.9 63.1171 20.9C63.7483 20.9 64.2597 20.3886 64.2597 19.7574V19.5749C64.2597 18.9437 63.7483 18.4323 63.1171 18.4323Z" fill="#1974ca"/>
<path d="M66.0847 23.5298C65.4536 23.5298 64.9421 24.0412 64.9421 24.6723V24.8548C64.9421 25.4859 65.4536 25.9974 66.0847 25.9974C66.7159 25.9974 67.2273 25.486 67.2273 24.8548V24.6723C67.2273 24.0412 66.7159 23.5298 66.0847 23.5298Z" fill="#1974ca"/>
<path d="M41.0669 22.4568L40.9823 22.2949C40.6903 21.7353 39.9997 21.5185 39.4408 21.8107C38.8813 22.1028 38.6646 22.7929 38.9566 23.3523L39.0412 23.5142C39.2448 23.9048 39.6429 24.1285 40.0549 24.1285C40.2331 24.1285 40.4138 24.0867 40.5827 23.9984C41.1421 23.7063 41.3589 23.0162 41.0669 22.4568Z" fill="#1974ca"/>
<path d="M46.0569 25.6016L45.9723 25.4397C45.6803 24.8801 44.9899 24.6633 44.4308 24.9555C43.8713 25.2476 43.6546 25.9377 43.9466 26.4971L44.0312 26.6591C44.2348 27.0497 44.6328 27.2733 45.0449 27.2733C45.2231 27.2733 45.4038 27.2316 45.5727 27.1432C46.1321 26.8512 46.3489 26.161 46.0569 25.6016Z" fill="#253D4E"/>
<path d="M38.9474 48.3339L35.5489 44.9352C35.1026 44.489 34.3791 44.4889 33.9332 44.9351C33.4868 45.3813 33.4868 46.1048 33.933 46.5508L37.3315 49.9495C37.5547 50.1727 37.8469 50.2842 38.1394 50.2842C38.4317 50.2842 38.7242 50.1727 38.9473 49.9497C39.3936 49.5034 39.3936 48.78 38.9474 48.3339Z" fill="#253D4E"/>
<path d="M49.0454 46.2046C48.6796 45.6906 47.9664 45.5702 47.452 45.9364L35.5912 54.3806C35.0772 54.7465 34.9571 55.46 35.3231 55.974C35.5459 56.2872 35.8975 56.454 36.2548 56.454C36.4839 56.454 36.7155 56.3852 36.9164 56.2421L48.7772 47.7979C49.2912 47.432 49.4113 46.7186 49.0454 46.2046Z" fill="#253D4E"/>
<path d="M53.2385 47.928C52.8729 47.414 52.1595 47.2937 51.6451 47.6599L47.0923 50.9012C46.5782 51.2674 46.4583 51.9807 46.8242 52.4947C47.0471 52.8079 47.3987 52.9748 47.7559 52.9748C47.9851 52.9748 48.2165 52.9059 48.4176 52.7627L52.9704 49.5214C53.4845 49.1555 53.6044 48.4421 53.2385 47.928Z" fill="#253D4E"/>
<path d="M77.7843 42.7438C77.415 42.2319 76.7011 42.1164 76.1891 42.4852L75.8085 42.7596C75.8101 42.6616 75.8123 42.5638 75.8123 42.4656C75.8123 41.3756 75.3882 40.35 74.6158 39.5755C73.8436 38.8052 72.8179 38.3811 71.728 38.3811H71.3898C72.6437 35.9583 73.2804 33.0409 73.2804 29.673C73.2804 23.0681 70.8045 15.8485 66.9729 11.2805C66.5672 10.7969 65.8466 10.7336 65.3632 11.1394C64.8798 11.545 64.8166 12.2657 65.2221 12.7491C68.7292 16.93 70.9954 23.5732 70.9954 29.673C70.9954 33.1884 70.2397 36.1143 68.7494 38.3811H66.4872L67.4923 37.6655C68.0065 37.2996 68.1264 36.5861 67.7605 36.0721C67.3947 35.5581 66.6816 35.4378 66.1671 35.804L62.5474 38.3811H55.751C56.4359 34.9117 55.7225 31.0358 53.6526 27.0709C52.1709 24.2336 50.0666 21.4882 47.646 19.1622C50.1392 12.8559 54.2653 8.82164 58.2857 8.82164C59.4999 8.82164 60.7235 9.17492 61.9223 9.87205C62.4679 10.1889 63.1673 10.0038 63.4845 9.45844C63.8015 8.91289 63.6164 8.21348 63.0709 7.8963C61.5186 6.99396 59.9086 6.53647 58.2857 6.53647C53.4218 6.53647 48.7448 10.7159 45.8367 17.5516C44.8462 16.7366 43.8197 15.9955 42.774 15.3498C37.8519 12.3099 33.191 11.6539 29.6504 13.5023C26.3846 15.209 24.2928 18.9934 23.7599 24.1583C23.695 24.786 24.1514 25.3474 24.779 25.412C25.4082 25.4778 25.9682 25.0203 26.0327 24.3928C26.4844 20.0158 28.1449 16.8674 30.7081 15.5277C36.9488 12.2697 47.2552 19.7574 51.6269 28.1286C53.5713 31.8531 54.1695 35.2973 53.4125 38.3812H40.602C40.5988 38.3812 40.5958 38.3812 40.5926 38.3812H34.7377L32.8201 36.4637C32.3737 36.0176 31.6504 36.0176 31.2042 36.4637C30.758 36.91 30.758 37.6334 31.2042 38.0796L31.5057 38.3811H28.3689C27.0962 35.4885 26.2595 32.1669 26.0001 28.9447C25.9495 28.3158 25.3992 27.8455 24.7696 27.8975C24.1406 27.9481 23.6718 28.4989 23.7224 29.128C23.9331 31.7465 24.4736 34.352 25.3078 36.811C22.0513 34.036 17.7977 32.5447 13.4182 32.7826C13.01 32.8048 12.6446 33.0435 12.4605 33.4084C10.7422 36.8107 10.2591 40.651 10.9717 44.2878C10.9784 44.3981 11.0002 44.504 11.0359 44.6034C11.2598 45.6411 11.5828 46.6601 12.002 47.6462C7.11148 48.4047 2.76859 51.2873 0.16548 55.5812C-0.0464317 55.9307 -0.0552677 56.3669 0.142019 56.725C1.9831 60.0663 4.88512 62.6334 8.29444 64.0961C8.38539 64.1494 8.4803 64.1898 8.57795 64.2157C10.4608 64.9833 12.4911 65.4171 14.579 65.4602C14.6934 65.4626 14.8066 65.4637 14.9207 65.4637C15.7334 65.4637 16.5386 65.4023 17.3318 65.287C17.4065 65.2825 17.4807 65.2729 17.5527 65.2542C20.911 64.7199 24.0332 63.1778 26.4981 60.8607C26.554 60.8691 26.6107 60.8749 26.6689 60.8749H31.7959C32.427 60.8749 32.9385 60.3635 32.9385 59.7323C32.9385 59.1012 32.427 58.5897 31.7959 58.5897H28.5153C28.8151 58.1833 29.0992 57.7627 29.3637 57.3263C29.3718 57.3129 29.3783 57.2989 29.3858 57.2854C29.3926 57.273 29.4009 57.2618 29.4073 57.249C32.0686 51.9766 31.7674 45.6531 28.6404 40.6662H33.7908L36.9016 43.777C37.1247 44 37.4172 44.1115 37.7096 44.1115C38.0019 44.1115 38.2944 44 38.5176 43.777C38.9638 43.3306 38.9638 42.6073 38.5176 42.161L37.0228 40.6662H40.1241L44.366 44.9081C44.5892 45.1312 44.8817 45.2427 45.174 45.2427C45.4664 45.2427 45.7589 45.1312 45.9821 44.9081C46.4283 44.4618 46.4283 43.7384 45.9821 43.2922L43.3562 40.6664H54.2708C54.272 40.6664 54.2733 40.6667 54.2746 40.6667C54.2758 40.6667 54.2771 40.6664 54.2784 40.6664H59.338L56.8435 42.4423C56.3293 42.8082 56.2094 43.5216 56.5753 44.0356C56.7982 44.3489 57.1498 44.5157 57.5071 44.5157C57.7362 44.5157 57.9676 44.4468 58.1687 44.3036L63.2777 40.6662H69.3447C69.3453 40.6662 69.3461 40.6664 69.3467 40.6664C69.3476 40.6664 69.3484 40.6662 69.3493 40.6662H71.7288C72.2094 40.6662 72.662 40.8535 73.0008 41.1912C73.3407 41.532 73.5279 41.9846 73.5279 42.4654C73.5279 43.1533 73.4844 43.831 73.4004 44.4965L65.0108 50.5458C64.4991 50.9149 64.3833 51.629 64.7523 52.141C64.9758 52.4507 65.3254 52.6154 65.6801 52.6154C65.9116 52.6154 66.1453 52.5452 66.3475 52.3995L72.5836 47.9031C71.3377 51.3701 68.9361 54.2903 65.8454 56.1973L53.1033 43.4552C52.6569 43.0091 51.9336 43.0091 51.4873 43.4552C51.0411 43.9016 51.0411 44.6249 51.4873 45.0711L63.7174 57.3012C62.0613 58.0087 60.2635 58.4461 58.3796 58.5591L53.3983 53.5781C52.9523 53.132 52.2288 53.1318 51.7826 53.5782C51.3364 54.0244 51.3364 54.7478 51.7827 55.194L55.1783 58.5894H43.9926L42.1594 56.7563C41.7131 56.3102 40.9897 56.3102 40.5435 56.7563C40.0973 57.2026 40.0973 57.926 40.5435 58.3722L40.7607 58.5894H36.5562C35.925 58.5894 35.4136 59.1009 35.4136 59.732C35.4136 60.3632 35.925 60.8746 36.5562 60.8746H43.0449L45.6219 63.4517C45.8451 63.6747 46.1376 63.7862 46.43 63.7862C46.7223 63.7862 47.0148 63.6747 47.238 63.4517C47.6842 63.0053 47.6842 62.282 47.238 61.8357L46.2768 60.8746H57.4015C60.282 60.8746 63.0098 60.209 65.4401 59.0247L66.3999 59.9845C66.6231 60.2075 66.9156 60.319 67.2079 60.319C67.5003 60.319 67.7928 60.2075 68.016 59.9845C68.4622 59.5381 68.4622 58.8148 68.016 58.3685L67.4986 57.8512C71.6181 55.1391 74.589 50.8196 75.5106 45.7919L77.5259 44.3388C78.0375 43.9698 78.1533 43.2558 77.7843 42.7438ZM26.5599 41.6511C26.6881 41.8472 26.8093 42.0466 26.9272 42.2476L24.035 47.9865L20.7326 42.9333L23.0438 37.9277C24.4088 38.939 25.6061 40.1917 26.5599 41.6511ZM22.7838 50.249L16.4848 50.5662C16.0602 50.0764 15.6652 49.5563 15.3056 49.006C14.5543 47.8563 13.981 46.6199 13.5861 45.3374L19.5108 45.2407L22.7838 50.249ZM21.0908 36.706L19.2576 40.6761L15.6141 35.1009C17.5408 35.272 19.401 35.825 21.0908 36.706ZM13.7005 36.3497L18.0331 42.9793L13.0788 43.0602C12.7653 40.8233 12.9691 38.5215 13.7005 36.3497ZM13.1099 49.8075C13.2018 49.9579 13.2958 50.1076 13.3926 50.256C13.9003 51.0328 14.468 51.7581 15.086 52.4301C15.1311 52.4888 15.1818 52.5427 15.2371 52.5916C16.2634 53.6786 17.4243 54.6186 18.6845 55.3922L12.673 55.2686L9.83875 50.5283C10.8883 50.1658 11.9847 49.9219 13.1099 49.8075ZM7.7268 51.4489L9.97723 55.213L3.31551 55.0761C4.5431 53.5767 6.04507 52.348 7.7268 51.4489ZM8.46003 61.6595C6.43614 60.6563 4.65051 59.1895 3.27026 57.3606L11.1881 57.5235L8.46003 61.6595ZM16.5788 63.0819C15.9348 63.1564 15.2825 63.1886 14.6254 63.1756C13.2523 63.1471 11.9079 62.9229 10.6265 62.5254L13.889 57.5789L19.8705 57.7019L16.5788 63.0819ZM19.6944 62.3682L22.5161 57.7564L25.9845 57.8277C26.0558 57.8343 26.1274 57.839 26.1989 57.8446C24.4795 59.9319 22.2181 61.491 19.6944 62.3682ZM26.118 55.545C23.4669 55.2852 20.9465 54.3022 18.8298 52.7362L24.2312 52.4641L26.2463 55.5476L26.118 55.545ZM28.1657 54.3075L25.4797 50.1974L28.1457 44.9072C29.1775 47.9357 29.1946 51.2504 28.1657 54.3075Z" fill="#253D4E"/>
<path d="M66.5711 44.7026C66.2019 44.1907 65.4878 44.0753 64.9761 44.4442L60.9498 47.3475C60.438 47.7165 60.3223 48.4305 60.6914 48.9425C60.9147 49.2522 61.2644 49.4169 61.619 49.4169C61.8507 49.4169 62.0843 49.3467 62.2864 49.2009L66.3128 46.2977C66.8245 45.9287 66.9403 45.2146 66.5711 44.7026Z" fill="#253D4E"/>
</g>
<path d="M95.0333 61L95.0224 55.9424L92.5154 60.128H91.8832L89.3762 56.0078V61H88.0246V53.37H89.1909L92.2211 58.4276L95.1968 53.37H96.3631L96.374 61H95.0333ZM104.474 59.2342H100.659L99.9065 61H98.4459L101.879 53.37H103.275L106.719 61H105.237L104.474 59.2342ZM104.005 58.1224L102.566 54.787L101.138 58.1224H104.005ZM113.772 61L112.213 58.7655C112.147 58.7728 112.049 58.7764 111.919 58.7764H110.196V61H108.779V53.37H111.919C112.58 53.37 113.154 53.479 113.641 53.697C114.135 53.915 114.513 54.2275 114.774 54.6344C115.036 55.0413 115.167 55.5246 115.167 56.0841C115.167 56.6582 115.025 57.1523 114.742 57.5665C114.465 57.9807 114.066 58.2895 113.543 58.493L115.298 61H113.772ZM113.739 56.0841C113.739 55.5972 113.579 55.223 113.259 54.9614C112.939 54.6998 112.471 54.569 111.853 54.569H110.196V57.6101H111.853C112.471 57.6101 112.939 57.4793 113.259 57.2177C113.579 56.9488 113.739 56.571 113.739 56.0841ZM119.283 54.569H116.755V53.37H123.229V54.569H120.7V61H119.283V54.569ZM135.208 61.1199L134.248 60.1934C133.536 60.8038 132.682 61.109 131.687 61.109C131.156 61.109 130.68 61.0218 130.259 60.8474C129.837 60.673 129.507 60.4332 129.267 60.128C129.027 59.8155 128.907 59.4631 128.907 59.0707C128.907 58.5984 129.045 58.1842 129.322 57.8281C129.598 57.4648 130.048 57.1087 130.673 56.7599C130.368 56.4547 130.15 56.1713 130.019 55.9097C129.888 55.6408 129.823 55.3647 129.823 55.0813C129.823 54.5436 130.023 54.1112 130.422 53.7842C130.829 53.4499 131.367 53.2828 132.036 53.2828C132.653 53.2828 133.147 53.4354 133.518 53.7406C133.889 54.0385 134.074 54.4455 134.074 54.9614C134.074 55.3538 133.95 55.7026 133.703 56.0078C133.464 56.313 133.068 56.6218 132.515 56.9343L134.161 58.5039C134.343 58.1478 134.485 57.7191 134.586 57.2177L135.687 57.5774C135.542 58.2532 135.313 58.8345 135 59.3214L135.96 60.237L135.208 61.1199ZM132.036 54.2529C131.738 54.2529 131.502 54.3292 131.327 54.4818C131.153 54.6271 131.066 54.8197 131.066 55.0595C131.066 55.2339 131.113 55.401 131.207 55.5609C131.302 55.7135 131.483 55.9242 131.752 56.1931C132.188 55.9533 132.49 55.7462 132.657 55.5718C132.831 55.3901 132.919 55.1939 132.919 54.9832C132.919 54.7579 132.839 54.5799 132.679 54.4491C132.526 54.3183 132.312 54.2529 132.036 54.2529ZM131.785 59.9972C132.417 59.9972 132.969 59.8046 133.442 59.4195L131.425 57.4902C130.989 57.73 130.68 57.9625 130.499 58.1878C130.324 58.4058 130.237 58.6529 130.237 58.929C130.237 59.2487 130.379 59.5067 130.662 59.7029C130.946 59.8991 131.32 59.9972 131.785 59.9972ZM147.584 57.0978H148.924V60.1389C148.532 60.4514 148.074 60.6912 147.551 60.8583C147.028 61.0254 146.49 61.109 145.938 61.109C145.16 61.109 144.459 60.9419 143.834 60.6076C143.209 60.2661 142.719 59.7974 142.363 59.2015C142.006 58.6056 141.828 57.9335 141.828 57.185C141.828 56.4365 142.006 55.7644 142.363 55.1685C142.719 54.5726 143.209 54.1076 143.834 53.7733C144.466 53.4318 145.175 53.261 145.96 53.261C146.599 53.261 147.18 53.3664 147.704 53.5771C148.227 53.7878 148.666 54.0967 149.022 54.5036L148.129 55.3756C147.547 54.7943 146.846 54.5036 146.025 54.5036C145.487 54.5036 145.008 54.6162 144.586 54.8415C144.172 55.0668 143.845 55.3829 143.605 55.7898C143.373 56.1967 143.256 56.6618 143.256 57.185C143.256 57.6937 143.373 58.1515 143.605 58.5584C143.845 58.9653 144.172 59.2851 144.586 59.5176C145.008 59.7501 145.484 59.8664 146.014 59.8664C146.61 59.8664 147.133 59.7356 147.584 59.474V57.0978ZM156.875 61L155.317 58.7655C155.251 58.7728 155.153 58.7764 155.022 58.7764H153.3V61H151.883V53.37H155.022C155.684 53.37 156.258 53.479 156.745 53.697C157.239 53.915 157.617 54.2275 157.878 54.6344C158.14 55.0413 158.271 55.5246 158.271 56.0841C158.271 56.6582 158.129 57.1523 157.846 57.5665C157.569 57.9807 157.17 58.2895 156.647 58.493L158.401 61H156.875ZM156.843 56.0841C156.843 55.5972 156.683 55.223 156.363 54.9614C156.043 54.6998 155.575 54.569 154.957 54.569H153.3V57.6101H154.957C155.575 57.6101 156.043 57.4793 156.363 57.2177C156.683 56.9488 156.843 56.571 156.843 56.0841ZM164.51 61.109C163.733 61.109 163.032 60.9419 162.407 60.6076C161.782 60.2661 161.291 59.7974 160.935 59.2015C160.579 58.5984 160.401 57.9262 160.401 57.185C160.401 56.4438 160.579 55.7753 160.935 55.1794C161.291 54.5763 161.782 54.1076 162.407 53.7733C163.032 53.4318 163.733 53.261 164.51 53.261C165.288 53.261 165.989 53.4318 166.614 53.7733C167.239 54.1076 167.729 54.5726 168.086 55.1685C168.442 55.7644 168.62 56.4365 168.62 57.185C168.62 57.9335 168.442 58.6056 168.086 59.2015C167.729 59.7974 167.239 60.2661 166.614 60.6076C165.989 60.9419 165.288 61.109 164.51 61.109ZM164.51 59.8664C165.019 59.8664 165.477 59.7538 165.884 59.5285C166.291 59.296 166.61 58.9762 166.843 58.5693C167.075 58.1551 167.192 57.6937 167.192 57.185C167.192 56.6763 167.075 56.2185 166.843 55.8116C166.61 55.3974 166.291 55.0777 165.884 54.8524C165.477 54.6199 165.019 54.5036 164.51 54.5036C164.002 54.5036 163.544 54.6199 163.137 54.8524C162.73 55.0777 162.41 55.3974 162.178 55.8116C161.945 56.2185 161.829 56.6763 161.829 57.185C161.829 57.6937 161.945 58.1551 162.178 58.5693C162.41 58.9762 162.73 59.296 163.137 59.5285C163.544 59.7538 164.002 59.8664 164.51 59.8664ZM174.743 61.109C173.973 61.109 173.275 60.9419 172.65 60.6076C172.033 60.2661 171.546 59.7974 171.19 59.2015C170.841 58.6056 170.667 57.9335 170.667 57.185C170.667 56.4365 170.845 55.7644 171.201 55.1685C171.557 54.5726 172.044 54.1076 172.661 53.7733C173.286 53.4318 173.984 53.261 174.754 53.261C175.379 53.261 175.949 53.37 176.465 53.588C176.981 53.806 177.417 54.1221 177.773 54.5363L176.858 55.3974C176.306 54.8015 175.626 54.5036 174.82 54.5036C174.296 54.5036 173.828 54.6199 173.413 54.8524C172.999 55.0777 172.676 55.3938 172.443 55.8007C172.211 56.2076 172.095 56.6691 172.095 57.185C172.095 57.7009 172.211 58.1624 172.443 58.5693C172.676 58.9762 172.999 59.296 173.413 59.5285C173.828 59.7538 174.296 59.8664 174.82 59.8664C175.626 59.8664 176.306 59.5648 176.858 58.9617L177.773 59.8337C177.417 60.2479 176.978 60.564 176.455 60.782C175.939 61 175.368 61.109 174.743 61.109ZM185.944 59.8119V61H180.221V53.37H185.791V54.5581H181.638V56.5419H185.322V57.7082H181.638V59.8119H185.944ZM193.605 61L192.047 58.7655C191.981 58.7728 191.883 58.7764 191.752 58.7764H190.03V61H188.613V53.37H191.752C192.414 53.37 192.988 53.479 193.475 53.697C193.969 53.915 194.347 54.2275 194.608 54.6344C194.87 55.0413 195.001 55.5246 195.001 56.0841C195.001 56.6582 194.859 57.1523 194.576 57.5665C194.299 57.9807 193.9 58.2895 193.377 58.493L195.131 61H193.605ZM193.573 56.0841C193.573 55.5972 193.413 55.223 193.093 54.9614C192.773 54.6998 192.305 54.569 191.687 54.569H190.03V57.6101H191.687C192.305 57.6101 192.773 57.4793 193.093 57.2177C193.413 56.9488 193.573 56.571 193.573 56.0841ZM200.861 58.3077V61H199.444V58.3295L196.447 53.37H197.962L200.196 57.0869L202.453 53.37H203.848L200.861 58.3077Z" fill="#1974ca"/>
<path d="M 127.48 29.6 L 131.6 6.2 L 121.24 23.28 L 117.52 23.28 L 112.84 6.04 L 108.72 29.6 L 105.12 29.6 L 110.04 1.6 L 115.2 1.6 L 119.92 19.44 L 130.48 1.6 L 136.2 1.6 L 131.28 29.6 L 127.48 29.6 Z M 62.12 21.32 L 60.68 29.6 L 57.08 29.6 L 60.72 8.8 L 64.2 8.8 L 63.32 13.6 A 10.513 10.513 0 0 1 65.664 10.54 A 9.969 9.969 0 0 1 66.66 9.76 A 8.341 8.341 0 0 1 68.988 8.626 A 7.26 7.26 0 0 1 71.08 8.32 A 7.226 7.226 0 0 1 73.004 8.563 A 5.363 5.363 0 0 1 75.44 9.98 A 5.551 5.551 0 0 1 77.08 14.003 A 7.006 7.006 0 0 1 77.08 14.04 Q 77.08 14.712 76.972 15.618 A 25.312 25.312 0 0 1 76.84 16.56 L 74.56 29.6 L 70.96 29.6 L 73.16 17.16 A 28.583 28.583 0 0 0 73.25 16.711 Q 73.37 16.085 73.4 15.74 Q 73.44 15.28 73.44 14.88 Q 73.44 13.32 72.54 12.4 A 3.008 3.008 0 0 0 70.78 11.524 A 4.211 4.211 0 0 0 70.16 11.48 A 4.429 4.429 0 0 0 68.818 11.701 Q 68.259 11.878 67.667 12.199 A 9.112 9.112 0 0 0 67.12 12.52 A 8.072 8.072 0 0 0 65.64 13.745 Q 65.035 14.373 64.471 15.181 A 15.063 15.063 0 0 0 64.1 15.74 Q 62.912 17.617 62.302 20.399 A 22.806 22.806 0 0 0 62.12 21.32 Z M 101.16 27 L 99.92 29.8 A 7.071 7.071 0 0 1 98.67 29.696 Q 97.967 29.57 97.414 29.29 A 3.44 3.44 0 0 1 96.62 28.74 A 3.237 3.237 0 0 1 95.785 27.433 Q 95.597 26.907 95.525 26.256 A 7.777 7.777 0 0 1 95.48 25.4 Q 94.32 27.32 92.56 28.7 Q 90.8 30.08 88.48 30.08 Q 86.48 30.08 84.72 29.02 A 7.654 7.654 0 0 1 82.105 26.376 A 9.181 9.181 0 0 1 81.9 26.02 Q 80.84 24.08 80.84 21.4 Q 80.84 18.32 81.76 15.9 A 13.809 13.809 0 0 1 82.991 13.412 A 11.415 11.415 0 0 1 84.22 11.8 A 11.902 11.902 0 0 1 86.352 9.949 A 10.373 10.373 0 0 1 87.62 9.22 A 8.894 8.894 0 0 1 90.265 8.399 A 8.148 8.148 0 0 1 91.4 8.32 A 7.244 7.244 0 0 1 93.303 8.56 A 5.855 5.855 0 0 1 95.06 9.36 A 7.6 7.6 0 0 1 96.912 11.103 A 7.058 7.058 0 0 1 97.44 11.92 L 99.56 0 L 103.16 0 L 98.92 23.96 A 3.189 3.189 0 0 0 98.887 24.161 Q 98.875 24.252 98.866 24.352 A 5.298 5.298 0 0 0 98.86 24.42 Q 98.84 24.68 98.84 24.96 A 3.063 3.063 0 0 0 98.89 25.536 Q 99.019 26.209 99.48 26.54 Q 100.052 26.951 100.944 26.995 A 4.425 4.425 0 0 0 101.16 27 Z M 0 4.96 L 0.6 1.6 L 21.6 1.6 L 21 4.96 L 12.4 4.96 L 8.08 29.6 L 4.28 29.6 L 8.6 4.96 L 0 4.96 Z M 179.04 12.68 L 179.56 9.56 L 183.24 9.56 L 185.16 3 L 187.92 3 L 186.76 9.56 L 192.52 9.56 L 192 12.68 L 186.2 12.68 L 184.52 22.4 Q 184.44 22.84 184.4 23.22 Q 184.36 23.6 184.36 23.92 A 3.758 3.758 0 0 0 184.459 24.809 A 2.534 2.534 0 0 0 185.2 26.1 A 2.864 2.864 0 0 0 186.667 26.817 A 4.059 4.059 0 0 0 187.4 26.88 A 6.599 6.599 0 0 0 188.251 26.828 Q 188.698 26.77 189.075 26.647 A 3.541 3.541 0 0 0 189.36 26.54 Q 190.16 26.2 190.8 25.84 L 191.24 28.96 A 6.828 6.828 0 0 1 190.517 29.32 Q 190.138 29.482 189.696 29.628 A 12.929 12.929 0 0 1 189.34 29.74 A 8.032 8.032 0 0 1 187.895 30.024 A 10.318 10.318 0 0 1 186.8 30.08 Q 185.32 30.08 183.94 29.48 Q 182.56 28.88 181.68 27.58 A 4.813 4.813 0 0 1 181.013 26.059 Q 180.853 25.432 180.813 24.7 A 9.178 9.178 0 0 1 180.8 24.2 Q 180.8 23.334 180.955 22.274 A 18.549 18.549 0 0 1 180.96 22.24 L 182.6 12.68 L 179.04 12.68 Z M 52.12 25.32 L 52.44 28.52 A 13.561 13.561 0 0 1 51.45 28.932 Q 50.902 29.136 50.26 29.332 A 28.63 28.63 0 0 1 49.4 29.58 A 14.091 14.091 0 0 1 47.074 29.997 A 18.029 18.029 0 0 1 45.32 30.08 A 10.386 10.386 0 0 1 42.762 29.777 A 8.506 8.506 0 0 1 40.66 28.94 Q 38.64 27.8 37.5 25.66 A 9.48 9.48 0 0 1 36.548 22.844 A 12.804 12.804 0 0 1 36.36 20.6 A 13.925 13.925 0 0 1 37.198 15.741 A 13.139 13.139 0 0 1 37.74 14.48 Q 39.12 11.68 41.66 10 A 10.126 10.126 0 0 1 46.254 8.389 A 12.786 12.786 0 0 1 47.6 8.32 Q 49.92 8.32 51.54 9.2 A 7.164 7.164 0 0 1 53.11 10.336 A 6.098 6.098 0 0 1 54.04 11.48 Q 54.92 12.88 54.92 14.48 A 7.673 7.673 0 0 1 54.761 16.083 Q 54.521 17.206 53.919 18.065 A 4.9 4.9 0 0 1 53.88 18.12 Q 52.84 19.56 51.2 20.34 Q 49.56 21.12 47.66 21.44 A 23.144 23.144 0 0 1 45.244 21.722 A 19.538 19.538 0 0 1 44.04 21.76 Q 42.96 21.76 41.9 21.66 A 43.436 43.436 0 0 1 41.022 21.569 Q 40.623 21.523 40.27 21.473 A 23.947 23.947 0 0 1 40.04 21.44 A 8.299 8.299 0 0 0 40.43 23.177 Q 40.829 24.319 41.563 25.125 A 5 5 0 0 0 41.92 25.48 A 5.394 5.394 0 0 0 44.72 26.787 A 7.449 7.449 0 0 0 45.92 26.88 A 13.148 13.148 0 0 0 47.754 26.758 A 9.755 9.755 0 0 0 49.48 26.36 Q 51.04 25.84 52.12 25.32 Z M 158.48 9.76 L 155.96 23.96 A 3.189 3.189 0 0 0 155.927 24.161 Q 155.915 24.252 155.906 24.352 A 5.298 5.298 0 0 0 155.9 24.42 Q 155.88 24.68 155.88 24.96 A 3.063 3.063 0 0 0 155.93 25.536 Q 156.059 26.209 156.52 26.54 Q 157.092 26.951 157.984 26.995 A 4.425 4.425 0 0 0 158.2 27 L 156.96 29.8 A 7.071 7.071 0 0 1 155.71 29.696 Q 155.007 29.57 154.454 29.29 A 3.44 3.44 0 0 1 153.66 28.74 A 3.263 3.263 0 0 1 152.809 27.398 Q 152.624 26.867 152.557 26.213 A 7.63 7.63 0 0 1 152.52 25.44 Q 151.4 27.36 149.7 28.72 Q 148 30.08 145.72 30.08 Q 143.76 30.08 142.04 29.02 Q 140.32 27.96 139.24 26.02 A 8.342 8.342 0 0 1 138.338 23.455 A 11.328 11.328 0 0 1 138.16 21.4 Q 138.16 17.52 139.86 14.58 Q 141.56 11.64 144.56 9.98 A 13.324 13.324 0 0 1 149.703 8.405 A 16.549 16.549 0 0 1 151.4 8.32 Q 153.553 8.32 155.223 8.719 A 11.414 11.414 0 0 1 155.54 8.8 Q 156.865 9.157 157.847 9.515 A 15.762 15.762 0 0 1 158.48 9.76 Z M 21.16 29.6 L 23.8 14.64 A 3.189 3.189 0 0 0 23.833 14.439 Q 23.845 14.348 23.854 14.248 A 5.298 5.298 0 0 0 23.86 14.18 Q 23.88 13.92 23.88 13.64 A 3.063 3.063 0 0 0 23.83 13.064 Q 23.701 12.391 23.24 12.06 Q 22.668 11.649 21.776 11.605 A 4.425 4.425 0 0 0 21.56 11.6 L 22.8 8.8 A 7.074 7.074 0 0 1 24.058 8.905 Q 25.285 9.127 26.06 9.82 A 3.246 3.246 0 0 1 27.012 11.377 Q 27.2 12.028 27.2 12.84 L 27.2 13.64 A 12.596 12.596 0 0 1 28.075 11.877 Q 28.616 10.984 29.256 10.335 A 6.21 6.21 0 0 1 30.18 9.56 A 7.166 7.166 0 0 1 34.248 8.32 A 8.636 8.636 0 0 1 34.32 8.32 A 10.137 10.137 0 0 1 35.025 8.343 Q 35.357 8.366 35.646 8.413 A 5.231 5.231 0 0 1 35.9 8.46 A 7.337 7.337 0 0 1 36.364 8.573 Q 36.59 8.637 36.782 8.71 A 3.64 3.64 0 0 1 37 8.8 L 35.4 12.32 Q 34.92 12.12 34.4 12.04 A 6.402 6.402 0 0 0 33.914 11.985 Q 33.665 11.966 33.388 11.962 A 10.996 10.996 0 0 0 33.2 11.96 A 4.369 4.369 0 0 0 31.386 12.368 A 6.12 6.12 0 0 0 30.34 12.98 A 6.043 6.043 0 0 0 29.253 14.006 Q 28.81 14.531 28.399 15.211 A 13.947 13.947 0 0 0 27.78 16.36 Q 27.014 17.946 26.438 20.326 A 39.896 39.896 0 0 0 25.92 22.84 L 24.76 29.6 L 21.16 29.6 Z M 162.44 29.6 L 165.08 14.64 A 3.189 3.189 0 0 0 165.113 14.439 Q 165.125 14.348 165.134 14.248 A 5.298 5.298 0 0 0 165.14 14.18 Q 165.16 13.92 165.16 13.64 A 3.063 3.063 0 0 0 165.11 13.064 Q 164.981 12.391 164.52 12.06 Q 163.948 11.649 163.056 11.605 A 4.425 4.425 0 0 0 162.84 11.6 L 164.08 8.8 A 7.074 7.074 0 0 1 165.338 8.905 Q 166.565 9.127 167.34 9.82 A 3.246 3.246 0 0 1 168.292 11.377 Q 168.48 12.028 168.48 12.84 L 168.48 13.64 A 12.596 12.596 0 0 1 169.355 11.877 Q 169.896 10.984 170.536 10.335 A 6.21 6.21 0 0 1 171.46 9.56 A 7.166 7.166 0 0 1 175.528 8.32 A 8.636 8.636 0 0 1 175.6 8.32 A 10.137 10.137 0 0 1 176.305 8.343 Q 176.637 8.366 176.926 8.413 A 5.231 5.231 0 0 1 177.18 8.46 A 7.337 7.337 0 0 1 177.644 8.573 Q 177.87 8.637 178.062 8.71 A 3.64 3.64 0 0 1 178.28 8.8 L 176.68 12.32 Q 176.2 12.12 175.68 12.04 A 6.402 6.402 0 0 0 175.194 11.985 Q 174.945 11.966 174.668 11.962 A 10.996 10.996 0 0 0 174.48 11.96 A 4.369 4.369 0 0 0 172.666 12.368 A 6.12 6.12 0 0 0 171.62 12.98 A 6.043 6.043 0 0 0 170.533 14.006 Q 170.09 14.531 169.679 15.211 A 13.947 13.947 0 0 0 169.06 16.36 Q 168.294 17.946 167.718 20.326 A 39.896 39.896 0 0 0 167.2 22.84 L 166.04 29.6 L 162.44 29.6 Z M 153.44 18.08 L 154.52 11.88 Q 153.76 11.64 152.94 11.5 A 8.852 8.852 0 0 0 152.218 11.409 Q 151.649 11.36 150.96 11.36 A 10.389 10.389 0 0 0 148.531 11.632 A 8.228 8.228 0 0 0 146.16 12.6 Q 144.12 13.84 142.98 16.02 A 10.031 10.031 0 0 0 141.911 19.616 A 12.398 12.398 0 0 0 141.84 20.96 Q 141.84 22.666 142.393 23.898 A 5.086 5.086 0 0 0 142.54 24.2 Q 143.24 25.52 144.36 26.2 A 4.704 4.704 0 0 0 145.7 26.763 A 4.164 4.164 0 0 0 146.68 26.88 A 4.559 4.559 0 0 0 149.487 25.912 A 5.784 5.784 0 0 0 149.68 25.76 A 7.775 7.775 0 0 0 150.981 24.371 Q 151.475 23.704 151.9 22.879 A 13.277 13.277 0 0 0 152.02 22.64 Q 153 20.64 153.44 18.08 Z M 96.16 19.12 L 96.88 15 A 7.151 7.151 0 0 0 95.872 13.424 A 5.974 5.974 0 0 0 94.72 12.38 Q 93.36 11.44 91.72 11.44 A 5.943 5.943 0 0 0 88.69 12.282 A 7.405 7.405 0 0 0 88.22 12.58 A 7.565 7.565 0 0 0 86.24 14.601 A 9.799 9.799 0 0 0 85.54 15.82 Q 84.581 17.795 84.524 20.53 A 16.74 16.74 0 0 0 84.52 20.88 A 9.113 9.113 0 0 0 84.631 22.343 Q 84.762 23.148 85.048 23.817 A 5.2 5.2 0 0 0 85.22 24.18 Q 85.92 25.52 87.06 26.2 A 4.764 4.764 0 0 0 88.599 26.8 A 4.407 4.407 0 0 0 89.44 26.88 A 4.848 4.848 0 0 0 91.861 26.222 A 6.11 6.11 0 0 0 92.34 25.92 A 7.489 7.489 0 0 0 93.852 24.505 A 10.005 10.005 0 0 0 94.74 23.22 A 10.821 10.821 0 0 0 95.733 20.935 A 14.14 14.14 0 0 0 96.16 19.12 Z M 47.32 11.36 A 6.442 6.442 0 0 0 44.652 11.911 A 6.271 6.271 0 0 0 43.92 12.3 A 7.51 7.51 0 0 0 41.482 14.759 A 8.743 8.743 0 0 0 41.42 14.86 A 9.629 9.629 0 0 0 40.306 17.61 A 11.585 11.585 0 0 0 40.12 18.56 Q 41.04 18.72 41.98 18.82 Q 42.92 18.92 44.04 18.92 A 19.682 19.682 0 0 0 46.003 18.828 Q 47.008 18.727 47.847 18.515 A 8.063 8.063 0 0 0 49.36 17.98 A 3.562 3.562 0 0 0 50.545 17.098 Q 51.138 16.406 51.277 15.403 A 4.679 4.679 0 0 0 51.32 14.76 A 3.102 3.102 0 0 0 50.337 12.471 A 4.142 4.142 0 0 0 50.22 12.36 A 3.751 3.751 0 0 0 48.426 11.468 A 5.403 5.403 0 0 0 47.32 11.36 Z" fill="#052e54"/>
<defs>
<clipPath id="clip0">
<rect width="78.0001" height="60" fill="white" transform="translate(0 6)"/>
</clipPath>
</defs>
</svg>
